<?xml version="1.0" encoding="UTF-8"?>
<!DOCTYPE svg PUBLIC "-//W3C//DTD SVG 1.1//EN" "http://www.w3.org/Graphics/SVG/1.1/DTD/svg11.dtd">
<!-- Creator: CorelDRAW 2026 -->
<svg xmlns="http://www.w3.org/2000/svg" xml:space="preserve" width="95.4274mm" height="95.487mm" version="1.1" shape-rendering="geometricPrecision" text-rendering="geometricPrecision" image-rendering="optimizeQuality" fill-rule="evenodd" clip-rule="evenodd"
viewBox="0 0 42346.24 42372.68"
 xmlns:xlink="http://www.w3.org/1999/xlink"
 xmlns:xodm="http://www.corel.com/coreldraw/odm/2003">
 <g id="Camada_x0020_1">
  <metadata id="CorelCorpID_0Corel-Layer"/>
  <path fill="black" d="M19828.19 14193.85c4352.82,-916.17 7654.35,2139.16 8365.82,5514.97 902.02,4279.82 -2108.14,7776.07 -5439.53,8461.49 -4350.43,895.14 -7831.36,-2006.74 -8546.07,-5432.43 -953.98,-4572.61 2103.97,-7804.03 5619.78,-8544.03zm15799.09 2778.92c-979.72,-3696.51 -2114.57,-1959.3 435.9,-5089.67 2980.47,-3658.17 2997.38,-2752.69 -837.72,-6567.86 -602,-598.89 -1302.55,-1679.38 -2474.81,-814.51l-4173.15 3457.24c-911.34,-199.07 -2066.43,-897.23 -3218.37,-1192.63 -73.75,-1649.3 -309.56,-3375.54 -469.98,-5029.68 -199.07,-2053.42 -886.93,-1677.7 -3721.27,-1677.74 -2389.39,0 -3437.14,-565.08 -3674.94,1835.14 -520.52,5253.55 502.99,4549.01 -3526.2,6064.07 -969.47,-558.29 -4302.32,-3790.45 -5165.11,-3778.96 -725.4,9.63 -1999.02,1564.45 -2417.17,1980.65 -3738.31,3720.96 -2367.42,2104.06 1568.62,7738.39 -139.12,543.95 -415.22,933.97 -633.1,1496.34 -210.78,544.04 -390.9,1073.22 -563.03,1618.15 -7837.44,541.56 -6690.6,555.4 -6691.76,4243.21 -1.07,3456.22 -1193.12,3580.34 6664.95,4094.42 1295.54,3920.34 2333.12,1818.86 -2089.06,7245.83 -949.54,1165.3 -254.71,1656.62 472.82,2364.67 4090.12,3980.73 2889.41,4188.23 6670.06,1182.07 581.27,-462.21 1543.15,-1412.56 2177.45,-1697.8 4110.13,1743.55 2951.36,397.25 3542.53,6134.27 239.27,2322.03 1532.99,1725.58 3663.94,1725.58 2325.27,0.04 3521.14,566.98 3733.79,-1790.9 130.29,-1444.64 222.23,-3498.6 520.66,-4855.91 104.99,-55.87 2715.86,-1141.56 2739.73,-1147.06 579.9,-133.61 1883.25,1145.82 2254.49,1449.17 3184.55,2602.08 2996.49,2890.65 4657.5,1239 693.99,-690.08 1267.4,-1260.22 1957.4,-1962.14 545.95,-555.36 1711.73,-1249.39 909.87,-2412.64l-3485.59 -4367.42 1188.86 -3056.53c1524.83,-296.29 3389.17,-351.19 4988.14,-522.48 2025.91,-217.04 1693.1,-670.91 1693.19,-3778.69 0.18,-4670.15 462.3,-3003.86 -6698.64,-4125.58z"/>
 </g>
</svg>
